solid OpenSCAD_Model
  facet normal -1 0 0
    outer loop
      vertex -6 -2.82069 0
      vertex -6 -5 0
      vertex -6 -2.82069 5
    endloop
  endfacet
  facet normal -1 0 0
    outer loop
      vertex -6 2.82069 5
      vertex -6 5 0
      vertex -6 2.82069 0
    endloop
  endfacet
  facet normal -1 0 0
    outer loop
      vertex -6 5 0
      vertex -6 2.82069 5
      vertex -6 5 15
    endloop
  endfacet
  facet normal -1 0 0
    outer loop
      vertex -6 -2.82069 5
      vertex -6 5 15
      vertex -6 2.82069 5
    endloop
  endfacet
  facet normal -1 0 0
    outer loop
      vertex -6 -2.82069 5
      vertex -6 -5 15
      vertex -6 5 15
    endloop
  endfacet
  facet normal -1 0 0
    outer loop
      vertex -6 -5 15
      vertex -6 -2.82069 5
      vertex -6 -5 0
    endloop
  endfacet
  facet normal 0 0 1
    outer loop
      vertex 0 5 15
      vertex -0.9 3 15
      vertex 0 -5 15
    endloop
  endfacet
  facet normal 0 0 1
    outer loop
      vertex 0 5 15
      vertex -4.1 3 15
      vertex -0.9 3 15
    endloop
  endfacet
  facet normal 0 0 1
    outer loop
      vertex -4.1 3 15
      vertex -6 5 15
      vertex -4.1 -3 15
    endloop
  endfacet
  facet normal -0 0 1
    outer loop
      vertex -6 5 15
      vertex -4.1 3 15
      vertex 0 5 15
    endloop
  endfacet
  facet normal -0 0 1
    outer loop
      vertex -0.9 -3 15
      vertex 0 -5 15
      vertex -0.9 3 15
    endloop
  endfacet
  facet normal -0 0 1
    outer loop
      vertex -4.1 -3 15
      vertex 0 -5 15
      vertex -0.9 -3 15
    endloop
  endfacet
  facet normal 0 0 1
    outer loop
      vertex -4.1 -3 15
      vertex -6 -5 15
      vertex 0 -5 15
    endloop
  endfacet
  facet normal 0 0 1
    outer loop
      vertex -6 -5 15
      vertex -4.1 -3 15
      vertex -6 5 15
    endloop
  endfacet
  facet normal 1 -0 0
    outer loop
      vertex 4 -5 5
      vertex 4 5 0
      vertex 4 5 5
    endloop
  endfacet
  facet normal 1 0 0
    outer loop
      vertex 4 5 0
      vertex 4 -5 5
      vertex 4 -5 0
    endloop
  endfacet
  facet normal 0 1 0
    outer loop
      vertex 4 5 5
      vertex 4 5 0
      vertex 0 5 5
    endloop
  endfacet
  facet normal 0 1 -0
    outer loop
      vertex 0 5 5
      vertex -6 5 15
      vertex 0 5 15
    endloop
  endfacet
  facet normal 0 1 0
    outer loop
      vertex 0 5 5
      vertex -6 5 0
      vertex -6 5 15
    endloop
  endfacet
  facet normal 0 1 0
    outer loop
      vertex -6 5 0
      vertex 0 5 5
      vertex 4 5 0
    endloop
  endfacet
  facet normal 0 0 -1
    outer loop
      vertex 4 -5 0
      vertex 2.63205 0 0
      vertex 4 5 0
    endloop
  endfacet
  facet normal 0 0 -1
    outer loop
      vertex 4 -5 0
      vertex 1.76602 -1.5 0
      vertex 2.63205 0 0
    endloop
  endfacet
  facet normal 0 0 -1
    outer loop
      vertex 4 -5 0
      vertex 0.0339737 -1.5 0
      vertex 1.76602 -1.5 0
    endloop
  endfacet
  facet normal 0 0 -1
    outer loop
      vertex 0.0339737 -1.5 0
      vertex -0.0339737 -1.5 0
      vertex 0 -1.44115 0
    endloop
  endfacet
  facet normal 0 0 -1
    outer loop
      vertex 4 -5 0
      vertex -0.0339737 -1.5 0
      vertex 0.0339737 -1.5 0
    endloop
  endfacet
  facet normal 0 0 -1
    outer loop
      vertex 4 -5 0
      vertex -1.76602 -1.5 0
      vertex -0.0339737 -1.5 0
    endloop
  endfacet
  facet normal 0 0 -1
    outer loop
      vertex -4.06556 -0.623734 0
      vertex -2.63205 0 0
      vertex -1.76602 -1.5 0
    endloop
  endfacet
  facet normal -0 0 -1
    outer loop
      vertex -2.63205 0 0
      vertex -4.06556 -0.623734 0
      vertex -4 0 0
    endloop
  endfacet
  facet normal 0 0 -1
    outer loop
      vertex -6 -5 0
      vertex -1.76602 -1.5 0
      vertex 4 -5 0
    endloop
  endfacet
  facet normal 0 0 -1
    outer loop
      vertex -1.76602 -1.5 0
      vertex -4.25936 -1.22021 0
      vertex -4.06556 -0.623734 0
    endloop
  endfacet
  facet normal -0 0 -1
    outer loop
      vertex -1.76602 -1.5 0
      vertex -4.57295 -1.76336 0
      vertex -4.25936 -1.22021 0
    endloop
  endfacet
  facet normal 0 -0 -1
    outer loop
      vertex -4.99261 -2.22943 0
      vertex -1.76602 -1.5 0
      vertex -6 -5 0
    endloop
  endfacet
  facet normal 0 0 -1
    outer loop
      vertex -1.76602 -1.5 0
      vertex -4.99261 -2.22943 0
      vertex -4.57295 -1.76336 0
    endloop
  endfacet
  facet normal 0 0 -1
    outer loop
      vertex -4.99261 -2.22943 0
      vertex -6 -5 0
      vertex -5.5 -2.59808 0
    endloop
  endfacet
  facet normal 0 0 -1
    outer loop
      vertex -5.5 -2.59808 0
      vertex -6 -5 0
      vertex -6 -2.82069 0
    endloop
  endfacet
  facet normal 0 0 -1
    outer loop
      vertex 1.76602 1.5 0
      vertex 4 5 0
      vertex 2.63205 0 0
    endloop
  endfacet
  facet normal 0 0 -1
    outer loop
      vertex 0.0339737 1.5 0
      vertex 4 5 0
      vertex 1.76602 1.5 0
    endloop
  endfacet
  facet normal 0 0 -1
    outer loop
      vertex -0.0339737 1.5 0
      vertex 0.0339737 1.5 0
      vertex -2.64502e-007 1.44116 0
    endloop
  endfacet
  facet normal 0 0 -1
    outer loop
      vertex -0.0339737 1.5 0
      vertex 4 5 0
      vertex 0.0339737 1.5 0
    endloop
  endfacet
  facet normal 0 0 -1
    outer loop
      vertex -1.76602 1.5 0
      vertex 4 5 0
      vertex -0.0339737 1.5 0
    endloop
  endfacet
  facet normal 0 0 -1
    outer loop
      vertex -4.06556 0.623734 0
      vertex -2.63205 0 0
      vertex -4 0 0
    endloop
  endfacet
  facet normal 0 0 -1
    outer loop
      vertex -2.63205 0 0
      vertex -4.06556 0.623734 0
      vertex -1.76602 1.5 0
    endloop
  endfacet
  facet normal 0 0 -1
    outer loop
      vertex -4.25936 1.22021 0
      vertex -1.76602 1.5 0
      vertex -4.06556 0.623734 0
    endloop
  endfacet
  facet normal 0 0 -1
    outer loop
      vertex -4.57295 1.76336 0
      vertex -1.76602 1.5 0
      vertex -4.25936 1.22021 0
    endloop
  endfacet
  facet normal 0 0 -1
    outer loop
      vertex -4.99261 2.22943 0
      vertex -1.76602 1.5 0
      vertex -4.57295 1.76336 0
    endloop
  endfacet
  facet normal 0 0 -1
    outer loop
      vertex -1.76602 1.5 0
      vertex -4.99261 2.22943 0
      vertex -6 5 0
    endloop
  endfacet
  facet normal 0 0 -1
    outer loop
      vertex -6 5 0
      vertex -4.99261 2.22943 0
      vertex -5.5 2.59808 0
    endloop
  endfacet
  facet normal 0 0 -1
    outer loop
      vertex -6 5 0
      vertex -5.5 2.59808 0
      vertex -6 2.82069 0
    endloop
  endfacet
  facet normal 0 0 -1
    outer loop
      vertex -1.76602 1.5 0
      vertex -6 5 0
      vertex 4 5 0
    endloop
  endfacet
  facet normal 0 -1 0
    outer loop
      vertex -6 -5 15
      vertex 0 -5 5
      vertex 0 -5 15
    endloop
  endfacet
  facet normal 0 -1 0
    outer loop
      vertex -6 -5 0
      vertex 0 -5 5
      vertex -6 -5 15
    endloop
  endfacet
  facet normal 0 -1 0
    outer loop
      vertex 4 -5 0
      vertex 0 -5 5
      vertex -6 -5 0
    endloop
  endfacet
  facet normal 0 -1 0
    outer loop
      vertex 0 -5 5
      vertex 4 -5 0
      vertex 4 -5 5
    endloop
  endfacet
  facet normal -1 0 0
    outer loop
      vertex -4.1 -3 15
      vertex -4.1 3 25
      vertex -4.1 3 15
    endloop
  endfacet
  facet normal -1 -0 0
    outer loop
      vertex -4.1 3 25
      vertex -4.1 -3 15
      vertex -4.1 -3 25
    endloop
  endfacet
  facet normal -0 0 1
    outer loop
      vertex -4.1 3 25
      vertex -0.9 -3 25
      vertex -0.9 3 25
    endloop
  endfacet
  facet normal 0 0 1
    outer loop
      vertex -0.9 -3 25
      vertex -4.1 3 25
      vertex -4.1 -3 25
    endloop
  endfacet
  facet normal 1 -0 0
    outer loop
      vertex -0.9 -3 25
      vertex -0.9 3 15
      vertex -0.9 3 25
    endloop
  endfacet
  facet normal 1 0 0
    outer loop
      vertex -0.9 3 15
      vertex -0.9 -3 25
      vertex -0.9 -3 15
    endloop
  endfacet
  facet normal 0 1 -0
    outer loop
      vertex -0.9 3 15
      vertex -4.1 3 25
      vertex -0.9 3 25
    endloop
  endfacet
  facet normal 0 1 0
    outer loop
      vertex -4.1 3 25
      vertex -0.9 3 15
      vertex -4.1 3 15
    endloop
  endfacet
  facet normal 0 -1 0
    outer loop
      vertex -4.1 -3 15
      vertex -0.9 -3 25
      vertex -4.1 -3 25
    endloop
  endfacet
  facet normal 0 -1 -0
    outer loop
      vertex -0.9 -3 25
      vertex -4.1 -3 15
      vertex -0.9 -3 15
    endloop
  endfacet
  facet normal -0.866025 -0.5 0
    outer loop
      vertex 2.63205 0 0
      vertex 1.76602 1.5 5
      vertex 1.76602 1.5 0
    endloop
  endfacet
  facet normal -0.866025 -0.5 0
    outer loop
      vertex 1.76602 1.5 5
      vertex 2.63205 0 0
      vertex 2.63205 0 5
    endloop
  endfacet
  facet normal 0.866026 0.5 0
    outer loop
      vertex 0.0339737 -1.5 5
      vertex 0 -1.44115 0
      vertex 0 -1.44115 5
    endloop
  endfacet
  facet normal 0.866026 0.5 0
    outer loop
      vertex 0 -1.44115 0
      vertex 0.0339737 -1.5 5
      vertex 0.0339737 -1.5 0
    endloop
  endfacet
  facet normal -5.50604e-007 -1 0
    outer loop
      vertex 0.0339737 1.5 0
      vertex 1.76602 1.5 5
      vertex 0.0339737 1.5 5
    endloop
  endfacet
  facet normal -5.50604e-007 -1 -0
    outer loop
      vertex 1.76602 1.5 5
      vertex 0.0339737 1.5 0
      vertex 1.76602 1.5 0
    endloop
  endfacet
  facet normal 0.866026 -0.5 0
    outer loop
      vertex -2.64502e-007 1.44116 5
      vertex 0.0339737 1.5 0
      vertex 0.0339737 1.5 5
    endloop
  endfacet
  facet normal 0.866026 -0.5 0
    outer loop
      vertex 0.0339737 1.5 0
      vertex -2.64502e-007 1.44116 5
      vertex -2.64502e-007 1.44116 0
    endloop
  endfacet
  facet normal -0.866025 0.5 0
    outer loop
      vertex 1.76602 -1.5 0
      vertex 2.63205 0 5
      vertex 2.63205 0 0
    endloop
  endfacet
  facet normal -0.866025 0.5 0
    outer loop
      vertex 2.63205 0 5
      vertex 1.76602 -1.5 0
      vertex 1.76602 -1.5 5
    endloop
  endfacet
  facet normal 0 1 -0
    outer loop
      vertex 1.76602 -1.5 0
      vertex 0.0339737 -1.5 5
      vertex 1.76602 -1.5 5
    endloop
  endfacet
  facet normal 0 1 0
    outer loop
      vertex 0.0339737 -1.5 5
      vertex 1.76602 -1.5 0
      vertex 0.0339737 -1.5 0
    endloop
  endfacet
  facet normal -0.866025 -0.5 0
    outer loop
      vertex -2.64502e-007 1.44116 0
      vertex -0.0339737 1.5 5
      vertex -0.0339737 1.5 0
    endloop
  endfacet
  facet normal -0.866025 -0.5 0
    outer loop
      vertex -0.0339737 1.5 5
      vertex -2.64502e-007 1.44116 0
      vertex -2.64502e-007 1.44116 5
    endloop
  endfacet
  facet normal 0.866025 -0.5 0
    outer loop
      vertex -2.63205 0 5
      vertex -1.76602 1.5 0
      vertex -1.76602 1.5 5
    endloop
  endfacet
  facet normal 0.866025 -0.5 0
    outer loop
      vertex -1.76602 1.5 0
      vertex -2.63205 0 5
      vertex -2.63205 0 0
    endloop
  endfacet
  facet normal -5.50604e-007 -1 0
    outer loop
      vertex -1.76602 1.5 0
      vertex -0.0339737 1.5 5
      vertex -1.76602 1.5 5
    endloop
  endfacet
  facet normal -5.50604e-007 -1 -0
    outer loop
      vertex -0.0339737 1.5 5
      vertex -1.76602 1.5 0
      vertex -0.0339737 1.5 0
    endloop
  endfacet
  facet normal -0.866026 0.5 0
    outer loop
      vertex -0.0339737 -1.5 0
      vertex 0 -1.44115 5
      vertex 0 -1.44115 0
    endloop
  endfacet
  facet normal -0.866026 0.5 0
    outer loop
      vertex 0 -1.44115 5
      vertex -0.0339737 -1.5 0
      vertex -0.0339737 -1.5 5
    endloop
  endfacet
  facet normal 0 1 -0
    outer loop
      vertex -0.0339737 -1.5 0
      vertex -1.76602 -1.5 5
      vertex -0.0339737 -1.5 5
    endloop
  endfacet
  facet normal 0 1 0
    outer loop
      vertex -1.76602 -1.5 5
      vertex -0.0339737 -1.5 0
      vertex -1.76602 -1.5 0
    endloop
  endfacet
  facet normal 0.866025 0.5 0
    outer loop
      vertex -1.76602 -1.5 5
      vertex -2.63205 0 0
      vertex -2.63205 0 5
    endloop
  endfacet
  facet normal 0.866025 0.5 0
    outer loop
      vertex -2.63205 0 0
      vertex -1.76602 -1.5 5
      vertex -1.76602 -1.5 0
    endloop
  endfacet
  facet normal 1 0 0
    outer loop
      vertex 0 5 15
      vertex 0 2.98357 13
      vertex 0 5 5
    endloop
  endfacet
  facet normal 1 0 0
    outer loop
      vertex 0 5 15
      vertex 0 -2.98357 13
      vertex 0 2.98357 13
    endloop
  endfacet
  facet normal 1 -0 0
    outer loop
      vertex 0 -5 15
      vertex 0 -2.98357 13
      vertex 0 5 15
    endloop
  endfacet
  facet normal 1 0 0
    outer loop
      vertex 0 -5 5
      vertex 0 -2.98357 13
      vertex 0 -5 15
    endloop
  endfacet
  facet normal 1 0 0
    outer loop
      vertex 0 -2.98357 13
      vertex 0 -5 5
      vertex 0 -2.98357 5
    endloop
  endfacet
  facet normal 1 0 0
    outer loop
      vertex 0 5 5
      vertex 0 2.98357 13
      vertex 0 2.98357 5
    endloop
  endfacet
  facet normal 0 0 1
    outer loop
      vertex 0.0339737 -1.5 5
      vertex -0.0339737 -1.5 5
      vertex 0 -2.98357 5
    endloop
  endfacet
  facet normal 0 0 1
    outer loop
      vertex -0.0339737 -1.5 5
      vertex -0.313585 -2.98357 5
      vertex 0 -2.98357 5
    endloop
  endfacet
  facet normal 0 0 1
    outer loop
      vertex -0.0339737 -1.5 5
      vertex -0.927051 -2.85317 5
      vertex -0.313585 -2.98357 5
    endloop
  endfacet
  facet normal 0 0 1
    outer loop
      vertex -0.0339737 -1.5 5
      vertex -1.5 -2.59808 5
      vertex -0.927051 -2.85317 5
    endloop
  endfacet
  facet normal -0 0 1
    outer loop
      vertex -1.76602 -1.5 5
      vertex -1.5 -2.59808 5
      vertex -0.0339737 -1.5 5
    endloop
  endfacet
  facet normal 0 0 1
    outer loop
      vertex -1.76602 -1.5 5
      vertex -2.00739 -2.22943 5
      vertex -1.5 -2.59808 5
    endloop
  endfacet
  facet normal 0 0 1
    outer loop
      vertex -1.76602 -1.5 5
      vertex -2.42705 -1.76336 5
      vertex -2.00739 -2.22943 5
    endloop
  endfacet
  facet normal -0 0 1
    outer loop
      vertex -2.74064 -1.22021 5
      vertex -1.76602 -1.5 5
      vertex -2.63205 0 5
    endloop
  endfacet
  facet normal 0 0 1
    outer loop
      vertex -1.76602 -1.5 5
      vertex -2.74064 -1.22021 5
      vertex -2.42705 -1.76336 5
    endloop
  endfacet
  facet normal -0 0 1
    outer loop
      vertex -2.93444 0.623734 5
      vertex -2.63205 0 5
      vertex -2.74064 1.22021 5
    endloop
  endfacet
  facet normal 0 0 1
    outer loop
      vertex -3 0 5
      vertex -2.63205 0 5
      vertex -2.93444 0.623734 5
    endloop
  endfacet
  facet normal 0 0 1
    outer loop
      vertex -2.63205 0 5
      vertex -2.93444 -0.623734 5
      vertex -2.74064 -1.22021 5
    endloop
  endfacet
  facet normal 0 0 1
    outer loop
      vertex -2.63205 0 5
      vertex -3 0 5
      vertex -2.93444 -0.623734 5
    endloop
  endfacet
  facet normal 0 0 1
    outer loop
      vertex 4 5 5
      vertex 2.63205 0 5
      vertex 4 -5 5
    endloop
  endfacet
  facet normal 0 0 1
    outer loop
      vertex 4 5 5
      vertex 1.76602 1.5 5
      vertex 2.63205 0 5
    endloop
  endfacet
  facet normal -0 0 1
    outer loop
      vertex 0 2.98357 5
      vertex 1.76602 1.5 5
      vertex 4 5 5
    endloop
  endfacet
  facet normal 0 0 1
    outer loop
      vertex 0 2.98357 5
      vertex 4 5 5
      vertex 0 5 5
    endloop
  endfacet
  facet normal 0 0 1
    outer loop
      vertex 1.76602 1.5 5
      vertex 0 2.98357 5
      vertex 0.0339737 1.5 5
    endloop
  endfacet
  facet normal 0 0 1
    outer loop
      vertex -0.0339737 1.5 5
      vertex 0.0339737 1.5 5
      vertex 0 2.98357 5
    endloop
  endfacet
  facet normal 0 0 1
    outer loop
      vertex 0.0339737 1.5 5
      vertex -0.0339737 1.5 5
      vertex -2.64502e-007 1.44116 5
    endloop
  endfacet
  facet normal -0 0 1
    outer loop
      vertex -0.313585 2.98357 5
      vertex -0.0339737 1.5 5
      vertex 0 2.98357 5
    endloop
  endfacet
  facet normal -0 0 1
    outer loop
      vertex -0.927051 2.85317 5
      vertex -0.0339737 1.5 5
      vertex -0.313585 2.98357 5
    endloop
  endfacet
  facet normal -0 0 1
    outer loop
      vertex -1.5 2.59808 5
      vertex -0.0339737 1.5 5
      vertex -0.927051 2.85317 5
    endloop
  endfacet
  facet normal 0 0 1
    outer loop
      vertex -1.5 2.59808 5
      vertex -1.76602 1.5 5
      vertex -0.0339737 1.5 5
    endloop
  endfacet
  facet normal -0 0 1
    outer loop
      vertex -2.00739 2.22943 5
      vertex -1.76602 1.5 5
      vertex -1.5 2.59808 5
    endloop
  endfacet
  facet normal -0 0 1
    outer loop
      vertex -2.42705 1.76336 5
      vertex -1.76602 1.5 5
      vertex -2.00739 2.22943 5
    endloop
  endfacet
  facet normal 0 0 1
    outer loop
      vertex -2.74064 1.22021 5
      vertex -1.76602 1.5 5
      vertex -2.42705 1.76336 5
    endloop
  endfacet
  facet normal 0 0 1
    outer loop
      vertex -1.76602 1.5 5
      vertex -2.74064 1.22021 5
      vertex -2.63205 0 5
    endloop
  endfacet
  facet normal -0 0 1
    outer loop
      vertex 1.76602 -1.5 5
      vertex 4 -5 5
      vertex 2.63205 0 5
    endloop
  endfacet
  facet normal 0 0 1
    outer loop
      vertex 0 -2.98357 5
      vertex 1.76602 -1.5 5
      vertex 0.0339737 -1.5 5
    endloop
  endfacet
  facet normal 0 0 1
    outer loop
      vertex -0.0339737 -1.5 5
      vertex 0.0339737 -1.5 5
      vertex 0 -1.44115 5
    endloop
  endfacet
  facet normal 0 0 1
    outer loop
      vertex 1.76602 -1.5 5
      vertex 0 -2.98357 5
      vertex 4 -5 5
    endloop
  endfacet
  facet normal 0 0 1
    outer loop
      vertex 4 -5 5
      vertex 0 -2.98357 5
      vertex 0 -5 5
    endloop
  endfacet
  facet normal 0.994522 -0.104529 0
    outer loop
      vertex -3 0 13
      vertex -2.93444 0.623734 5
      vertex -2.93444 0.623734 13
    endloop
  endfacet
  facet normal 0.994522 -0.104529 0
    outer loop
      vertex -2.93444 0.623734 5
      vertex -3 0 13
      vertex -3 0 5
    endloop
  endfacet
  facet normal 0 -1 0
    outer loop
      vertex -0.313585 2.98357 5
      vertex 0 2.98357 13
      vertex -0.313585 2.98357 13
    endloop
  endfacet
  facet normal 0 -1 -0
    outer loop
      vertex 0 2.98357 13
      vertex -0.313585 2.98357 5
      vertex 0 2.98357 5
    endloop
  endfacet
  facet normal 0 1 -0
    outer loop
      vertex 0 -2.98357 5
      vertex -0.313585 -2.98357 13
      vertex 0 -2.98357 13
    endloop
  endfacet
  facet normal 0 1 0
    outer loop
      vertex -0.313585 -2.98357 13
      vertex 0 -2.98357 5
      vertex -0.313585 -2.98357 5
    endloop
  endfacet
  facet normal 0.743144 -0.669131 0
    outer loop
      vertex -2.42705 1.76336 13
      vertex -2.00739 2.22943 5
      vertex -2.00739 2.22943 13
    endloop
  endfacet
  facet normal 0.743144 -0.669131 0
    outer loop
      vertex -2.00739 2.22943 5
      vertex -2.42705 1.76336 13
      vertex -2.42705 1.76336 5
    endloop
  endfacet
  facet normal 0 0 -1
    outer loop
      vertex -0.927051 -2.85317 13
      vertex 0 -2.98357 13
      vertex -0.313585 -2.98357 13
    endloop
  endfacet
  facet normal 0 0 -1
    outer loop
      vertex 0 -2.98357 13
      vertex -0.927051 -2.85317 13
      vertex 0 2.98357 13
    endloop
  endfacet
  facet normal 0 0 -1
    outer loop
      vertex -1.5 2.59808 13
      vertex 0 2.98357 13
      vertex -0.927051 -2.85317 13
    endloop
  endfacet
  facet normal -0 0 -1
    outer loop
      vertex 0 2.98357 13
      vertex -0.927051 2.85317 13
      vertex -0.313585 2.98357 13
    endloop
  endfacet
  facet normal 0 0 -1
    outer loop
      vertex 0 2.98357 13
      vertex -1.5 2.59808 13
      vertex -0.927051 2.85317 13
    endloop
  endfacet
  facet normal 0 0 -1
    outer loop
      vertex -1.5 -2.59808 13
      vertex -1.5 2.59808 13
      vertex -0.927051 -2.85317 13
    endloop
  endfacet
  facet normal 0 0 -1
    outer loop
      vertex -2.00739 -2.22943 13
      vertex -1.5 2.59808 13
      vertex -1.5 -2.59808 13
    endloop
  endfacet
  facet normal 0 0 -1
    outer loop
      vertex -2.00739 -2.22943 13
      vertex -2.00739 2.22943 13
      vertex -1.5 2.59808 13
    endloop
  endfacet
  facet normal 0 0 -1
    outer loop
      vertex -2.42705 -1.76336 13
      vertex -2.00739 2.22943 13
      vertex -2.00739 -2.22943 13
    endloop
  endfacet
  facet normal 0 0 -1
    outer loop
      vertex -2.42705 -1.76336 13
      vertex -2.42705 1.76336 13
      vertex -2.00739 2.22943 13
    endloop
  endfacet
  facet normal 0 0 -1
    outer loop
      vertex -2.74064 -1.22021 13
      vertex -2.42705 1.76336 13
      vertex -2.42705 -1.76336 13
    endloop
  endfacet
  facet normal 0 0 -1
    outer loop
      vertex -2.74064 -1.22021 13
      vertex -2.74064 1.22021 13
      vertex -2.42705 1.76336 13
    endloop
  endfacet
  facet normal 0 0 -1
    outer loop
      vertex -2.93444 -0.623734 13
      vertex -2.74064 1.22021 13
      vertex -2.74064 -1.22021 13
    endloop
  endfacet
  facet normal 0 0 -1
    outer loop
      vertex -2.93444 -0.623734 13
      vertex -2.93444 0.623734 13
      vertex -2.74064 1.22021 13
    endloop
  endfacet
  facet normal 0 -0 -1
    outer loop
      vertex -2.93444 0.623734 13
      vertex -2.93444 -0.623734 13
      vertex -3 0 13
    endloop
  endfacet
  facet normal 0.406737 -0.913545 0
    outer loop
      vertex -1.5 2.59808 5
      vertex -0.927051 2.85317 13
      vertex -1.5 2.59808 13
    endloop
  endfacet
  facet normal 0.406737 -0.913545 0
    outer loop
      vertex -0.927051 2.85317 13
      vertex -1.5 2.59808 5
      vertex -0.927051 2.85317 5
    endloop
  endfacet
  facet normal 0.866026 -0.5 0
    outer loop
      vertex -2.74064 1.22021 13
      vertex -2.42705 1.76336 5
      vertex -2.42705 1.76336 13
    endloop
  endfacet
  facet normal 0.866026 -0.5 0
    outer loop
      vertex -2.42705 1.76336 5
      vertex -2.74064 1.22021 13
      vertex -2.74064 1.22021 5
    endloop
  endfacet
  facet normal 0.951056 -0.309017 0
    outer loop
      vertex -2.93444 0.623734 13
      vertex -2.74064 1.22021 5
      vertex -2.74064 1.22021 13
    endloop
  endfacet
  facet normal 0.951056 -0.309017 0
    outer loop
      vertex -2.74064 1.22021 5
      vertex -2.93444 0.623734 13
      vertex -2.93444 0.623734 5
    endloop
  endfacet
  facet normal 0.587785 -0.809017 0
    outer loop
      vertex -2.00739 2.22943 5
      vertex -1.5 2.59808 13
      vertex -2.00739 2.22943 13
    endloop
  endfacet
  facet normal 0.587785 -0.809017 0
    outer loop
      vertex -1.5 2.59808 13
      vertex -2.00739 2.22943 5
      vertex -1.5 2.59808 5
    endloop
  endfacet
  facet normal 0.207911 -0.978148 0
    outer loop
      vertex -0.927051 2.85317 5
      vertex -0.313585 2.98357 13
      vertex -0.927051 2.85317 13
    endloop
  endfacet
  facet normal 0.207911 -0.978148 0
    outer loop
      vertex -0.313585 2.98357 13
      vertex -0.927051 2.85317 5
      vertex -0.313585 2.98357 5
    endloop
  endfacet
  facet normal 0.866026 0.5 0
    outer loop
      vertex -2.42705 -1.76336 13
      vertex -2.74064 -1.22021 5
      vertex -2.74064 -1.22021 13
    endloop
  endfacet
  facet normal 0.866026 0.5 0
    outer loop
      vertex -2.74064 -1.22021 5
      vertex -2.42705 -1.76336 13
      vertex -2.42705 -1.76336 5
    endloop
  endfacet
  facet normal 0.207911 0.978148 -0
    outer loop
      vertex -0.313585 -2.98357 5
      vertex -0.927051 -2.85317 13
      vertex -0.313585 -2.98357 13
    endloop
  endfacet
  facet normal 0.207911 0.978148 0
    outer loop
      vertex -0.927051 -2.85317 13
      vertex -0.313585 -2.98357 5
      vertex -0.927051 -2.85317 5
    endloop
  endfacet
  facet normal 0.406737 0.913545 -0
    outer loop
      vertex -0.927051 -2.85317 5
      vertex -1.5 -2.59808 13
      vertex -0.927051 -2.85317 13
    endloop
  endfacet
  facet normal 0.406737 0.913545 0
    outer loop
      vertex -1.5 -2.59808 13
      vertex -0.927051 -2.85317 5
      vertex -1.5 -2.59808 5
    endloop
  endfacet
  facet normal 0.743144 0.669131 0
    outer loop
      vertex -2.00739 -2.22943 13
      vertex -2.42705 -1.76336 5
      vertex -2.42705 -1.76336 13
    endloop
  endfacet
  facet normal 0.743144 0.669131 0
    outer loop
      vertex -2.42705 -1.76336 5
      vertex -2.00739 -2.22943 13
      vertex -2.00739 -2.22943 5
    endloop
  endfacet
  facet normal 0.951056 0.309017 0
    outer loop
      vertex -2.74064 -1.22021 13
      vertex -2.93444 -0.623734 5
      vertex -2.93444 -0.623734 13
    endloop
  endfacet
  facet normal 0.951056 0.309017 0
    outer loop
      vertex -2.93444 -0.623734 5
      vertex -2.74064 -1.22021 13
      vertex -2.74064 -1.22021 5
    endloop
  endfacet
  facet normal 0.994522 0.104529 0
    outer loop
      vertex -2.93444 -0.623734 13
      vertex -3 0 5
      vertex -3 0 13
    endloop
  endfacet
  facet normal 0.994522 0.104529 0
    outer loop
      vertex -3 0 5
      vertex -2.93444 -0.623734 13
      vertex -2.93444 -0.623734 5
    endloop
  endfacet
  facet normal 0.587786 0.809016 -0
    outer loop
      vertex -1.5 -2.59808 5
      vertex -2.00739 -2.22943 13
      vertex -1.5 -2.59808 13
    endloop
  endfacet
  facet normal 0.587786 0.809016 0
    outer loop
      vertex -2.00739 -2.22943 13
      vertex -1.5 -2.59808 5
      vertex -2.00739 -2.22943 5
    endloop
  endfacet
  facet normal -0.994522 -0.104528 0
    outer loop
      vertex -4 0 0
      vertex -4.06556 0.623734 5
      vertex -4.06556 0.623734 0
    endloop
  endfacet
  facet normal -0.994522 -0.104528 0
    outer loop
      vertex -4.06556 0.623734 5
      vertex -4 0 0
      vertex -4 0 5
    endloop
  endfacet
  facet normal -0.587785 -0.809017 0
    outer loop
      vertex -5.5 2.59808 0
      vertex -4.99261 2.22943 5
      vertex -5.5 2.59808 5
    endloop
  endfacet
  facet normal -0.587785 -0.809017 -0
    outer loop
      vertex -4.99261 2.22943 5
      vertex -5.5 2.59808 0
      vertex -4.99261 2.22943 0
    endloop
  endfacet
  facet normal -0.406737 -0.913545 0
    outer loop
      vertex -6 2.82069 0
      vertex -5.5 2.59808 5
      vertex -6 2.82069 5
    endloop
  endfacet
  facet normal -0.406737 -0.913545 -0
    outer loop
      vertex -5.5 2.59808 5
      vertex -6 2.82069 0
      vertex -5.5 2.59808 0
    endloop
  endfacet
  facet normal 0 0 -1
    outer loop
      vertex -4.06556 -0.623734 5
      vertex -4.06556 0.623734 5
      vertex -4 0 5
    endloop
  endfacet
  facet normal 0 0 -1
    outer loop
      vertex -4.25936 -1.22021 5
      vertex -4.06556 0.623734 5
      vertex -4.06556 -0.623734 5
    endloop
  endfacet
  facet normal 0 0 -1
    outer loop
      vertex -4.25936 -1.22021 5
      vertex -4.25936 1.22021 5
      vertex -4.06556 0.623734 5
    endloop
  endfacet
  facet normal 0 0 -1
    outer loop
      vertex -4.57295 -1.76336 5
      vertex -4.25936 1.22021 5
      vertex -4.25936 -1.22021 5
    endloop
  endfacet
  facet normal 0 0 -1
    outer loop
      vertex -4.57295 -1.76336 5
      vertex -4.57295 1.76336 5
      vertex -4.25936 1.22021 5
    endloop
  endfacet
  facet normal 0 0 -1
    outer loop
      vertex -4.99261 -2.22943 5
      vertex -4.57295 1.76336 5
      vertex -4.57295 -1.76336 5
    endloop
  endfacet
  facet normal 0 0 -1
    outer loop
      vertex -4.99261 -2.22943 5
      vertex -4.99261 2.22943 5
      vertex -4.57295 1.76336 5
    endloop
  endfacet
  facet normal 0 0 -1
    outer loop
      vertex -6 -2.82069 5
      vertex -4.99261 -2.22943 5
      vertex -5.5 -2.59808 5
    endloop
  endfacet
  facet normal -0 0 -1
    outer loop
      vertex -4.99261 -2.22943 5
      vertex -6 -2.82069 5
      vertex -4.99261 2.22943 5
    endloop
  endfacet
  facet normal 0 0 -1
    outer loop
      vertex -6 2.82069 5
      vertex -4.99261 2.22943 5
      vertex -6 -2.82069 5
    endloop
  endfacet
  facet normal 0 0 -1
    outer loop
      vertex -4.99261 2.22943 5
      vertex -6 2.82069 5
      vertex -5.5 2.59808 5
    endloop
  endfacet
  facet normal -0.866026 0.5 0
    outer loop
      vertex -4.57295 -1.76336 0
      vertex -4.25936 -1.22021 5
      vertex -4.25936 -1.22021 0
    endloop
  endfacet
  facet normal -0.866026 0.5 0
    outer loop
      vertex -4.25936 -1.22021 5
      vertex -4.57295 -1.76336 0
      vertex -4.57295 -1.76336 5
    endloop
  endfacet
  facet normal -0.866026 -0.5 0
    outer loop
      vertex -4.25936 1.22021 0
      vertex -4.57295 1.76336 5
      vertex -4.57295 1.76336 0
    endloop
  endfacet
  facet normal -0.866026 -0.5 0
    outer loop
      vertex -4.57295 1.76336 5
      vertex -4.25936 1.22021 0
      vertex -4.25936 1.22021 5
    endloop
  endfacet
  facet normal -0.951056 -0.309017 0
    outer loop
      vertex -4.06556 0.623734 0
      vertex -4.25936 1.22021 5
      vertex -4.25936 1.22021 0
    endloop
  endfacet
  facet normal -0.951056 -0.309017 0
    outer loop
      vertex -4.25936 1.22021 5
      vertex -4.06556 0.623734 0
      vertex -4.06556 0.623734 5
    endloop
  endfacet
  facet normal -0.743144 -0.669131 0
    outer loop
      vertex -4.57295 1.76336 0
      vertex -4.99261 2.22943 5
      vertex -4.99261 2.22943 0
    endloop
  endfacet
  facet normal -0.743144 -0.669131 0
    outer loop
      vertex -4.99261 2.22943 5
      vertex -4.57295 1.76336 0
      vertex -4.57295 1.76336 5
    endloop
  endfacet
  facet normal -0.994522 0.104528 0
    outer loop
      vertex -4.06556 -0.623734 0
      vertex -4 0 5
      vertex -4 0 0
    endloop
  endfacet
  facet normal -0.994522 0.104528 0
    outer loop
      vertex -4 0 5
      vertex -4.06556 -0.623734 0
      vertex -4.06556 -0.623734 5
    endloop
  endfacet
  facet normal -0.743144 0.669131 0
    outer loop
      vertex -4.99261 -2.22943 0
      vertex -4.57295 -1.76336 5
      vertex -4.57295 -1.76336 0
    endloop
  endfacet
  facet normal -0.743144 0.669131 0
    outer loop
      vertex -4.57295 -1.76336 5
      vertex -4.99261 -2.22943 0
      vertex -4.99261 -2.22943 5
    endloop
  endfacet
  facet normal -0.951056 0.309017 0
    outer loop
      vertex -4.25936 -1.22021 0
      vertex -4.06556 -0.623734 5
      vertex -4.06556 -0.623734 0
    endloop
  endfacet
  facet normal -0.951056 0.309017 0
    outer loop
      vertex -4.06556 -0.623734 5
      vertex -4.25936 -1.22021 0
      vertex -4.25936 -1.22021 5
    endloop
  endfacet
  facet normal -0.587785 0.809017 0
    outer loop
      vertex -4.99261 -2.22943 0
      vertex -5.5 -2.59808 5
      vertex -4.99261 -2.22943 5
    endloop
  endfacet
  facet normal -0.587785 0.809017 0
    outer loop
      vertex -5.5 -2.59808 5
      vertex -4.99261 -2.22943 0
      vertex -5.5 -2.59808 0
    endloop
  endfacet
  facet normal -0.406737 0.913545 0
    outer loop
      vertex -5.5 -2.59808 0
      vertex -6 -2.82069 5
      vertex -5.5 -2.59808 5
    endloop
  endfacet
  facet normal -0.406737 0.913545 0
    outer loop
      vertex -6 -2.82069 5
      vertex -5.5 -2.59808 0
      vertex -6 -2.82069 0
    endloop
  endfacet
endsolid OpenSCAD_Model
